<svg xmlns="http://www.w3.org/2000/svg" viewBox="0 0 477.35 361.8"><defs><style>.cls-1{fill:#910d6a;}.cls-2{fill:#9b2f77;}</style></defs><g id="Laag_2" data-name="Laag 2"><g id="Laag_1-2" data-name="Laag 1"><path class="cls-1" d="M112.1,114.87c.07,2.71,1.46,5.06,1.05,7.74-.34,2.21-1.12,3.38-3.67,2.06a21.32,21.32,0,0,1-7.65-7c-5.77-8.44-12.15-16.39-18.47-24.4-.7-.87-1.17-2.21-2.45-2s-1.29,1.75-1.43,2.8c-.71,5.57-1.47,11.14-1.94,16.73-.28,3.35-2.31,4.87-5.08,5.69-3.38,1-5.84-1.1-5.59-4.59.41-5.57.84-11.14.92-16.8a28.69,28.69,0,0,1-4.7,9.57c-.61.75-1.33,1.73-2.41,1.53s-.86-1.36-1.1-2.17C57.65,97.57,58,90.88,59.1,84.4c2.67-15.92,2.53-32.07,4.39-48.05a32.94,32.94,0,0,1,1.23-6.58c1.21-3.63,3.5-6.42,7.64-6.73,2.09-.16,3-1,3.62-3a62.43,62.43,0,0,1,3-6.85c1.12-2.48,2.81-3.24,5.44-2.1a15.6,15.6,0,0,1,5,3.19c.63.62,1.08,1.44,2.05,1.42,4.18-.09,4.5,2.85,4.41,5.82-.16,4.73-.58,9.46-.87,14.19,0,.72-.34,1.67.36,2.09,1.08.65,1.42-.57,2-1.1,3.08-2.7,5.64-5.92,9-8.34,4.22-3,6.44-3.33,10.26.1,1.79,1.61,3.52,2,5.31.74,3.36-2.4,5.62-.62,7.7,1.77,1.93,2.21,3.28,4.85,6.16,6.28,1.77.88,1.18,2.72.28,4.26a35.13,35.13,0,0,1-7.66,9c-7.1,6-13.8,12.65-21.87,17.44-2.46,1.46-1.19,2.56-.25,3.77a236,236,0,0,1,15.19,22.65c2,3.3,2.81,6.1-.75,8.73-1.6,1.18-1.35,2.61-.36,3.93,1.87,2.49,3.09,5.37,5.22,7.73,2.94,3.23.51,9.31-3.83,10.21-1.53.32-2.27-.61-3-1.64C116.54,120.53,114.31,117.71,112.1,114.87Z"/><path class="cls-1" d="M168,20.67c-4.07-.55-5-3.27-5.48-6.33-.43-2.77-.52-5.47-2.06-8.14-1.45-2.5.85-4,3.18-4.82A33,33,0,0,1,176.24.1a67.92,67.92,0,0,1,27.32,7.06,3.51,3.51,0,0,1,1.89,4.68c-1.1,3.34.62,4.89,3.29,6,1.26.53,2.55,1,3.85,1.42,2.36.78,3.32,2.31,3.15,4.82-.44,6.2-1.66,7.08-7.56,5.15-1.53-.49-3-1.07-5.18-1.85,1.64,2.14,3.68,3.16,4.22,5.53.62,2.75-.39,3.83-2.87,3.94a24,24,0,0,1-8.08-1.39,86.65,86.65,0,0,0-13.41-3.3c-2.27-.31-3.2.38-3.57,2.54a88.56,88.56,0,0,1-2.09,9.86c-.72,2.41.32,3.1,2.29,3.62,3.25.86,6.44,2,9.7,2.75,2.36.58,3.52,1.9,3.14,4.26-.57,3.44,1.36,4.58,4.23,5.34,4.32,1.15,6.41,6.77,4.15,10.55-.64,1.07-1.37.73-2.23.56-1.43-.27-2.85-.93-4.35-.35,0,.3-.2.63-.11.74,1.64,1.85,4,3.72,2.54,6.4-1.38,2.48-4.36,2.15-6.83,2-5.47-.46-10.92-1.1-16.38-1.68-.87-.09-1.73-.31-2.6-.33a1.74,1.74,0,0,0-1.93,1.83c-.06,1.29,1,1.33,1.84,1.31,3.3-.09,6.37,1.24,9.61,1.47,2.4.17,3.91,1.4,3.78,3.74-.22,3.77,2,4.68,5,5,6.54.71,7,1.8,6.22,9.07-.18,1.78-1.1,2.62-3.05,2.29-2.69-.44-5.38-1.1-8.32-.36,3.39-.27,5.23,1.53,6.34,4.32.92,2.32.23,3.93-2.21,4.61a11.08,11.08,0,0,1-3.31.54c-6.5-.19-12.95.51-19.43.9-3.82.23-7.93.22-9.58-4.59-.53-1.55-1.93-.7-2.94-.68-5.11.07-5.19,0-5.08-5.21.08-3.7,0-7.4,0-11.72-1.25,2.62-2.26,4.79-3.31,6.93a3.2,3.2,0,0,1-3,2c-1.59,0-1.35-1.55-1.65-2.53-2.37-7.82-.77-15.62.17-23.42q1.89-15.8,5.17-31.37a33.65,33.65,0,0,1,2.46-7c1.85-4.12,4.78-6,9.18-5.3,2.31.36,2.88-1,3.78-2.64C162.19,24.58,162.32,19.92,168,20.67Z"/><path class="cls-1" d="M369.89,210.44c2.13,1.7,5.65,2.43,4.69,5.72-.8,2.77-3.89,3.38-6.37,4-7.12,1.67-13.61,4.79-20,8.1a18.17,18.17,0,0,1-4.94,1.64c-1.4.26-1.73,1.3-1.67,2.52.06,1.37,1.06,1.49,2.12,1.52,3.37.08,6.75.31,10.12.21,2.8-.09,4.61.79,5,3.74.4,3.11,2.31,4.07,5.21,3.93,2.37-.11,4.75.08,7.12,0,2-.07,3.45.63,4,2.57.71,2.4,1.39,4.87.28,7.31-.51,1.11-1.76.69-2.71.7-2.57,0-5.14,0-8.16,0,1,2.54,2.88,2.06,4,2.9,1.35,1,2.67,2.06,2.48,3.9-.18,1.67-1.81,1.91-3.06,2.32a19.53,19.53,0,0,1-4.71,1.15q-15.67,1.15-31.38,2.12a22.39,22.39,0,0,1-4.48-.19c-5.15-.74-6.76-2.22-7.39-7.32-.25-2-.85-3.34-2.92-3.68-6-1-6-5.42-4.73-10.05.33-1.18,1-2.19.42-3.56-1.5-3.59-.8-5.41,2.79-5.56,4.1-.17,4.39-2.06,4.33-5.47-.11-7.28-1.72-14.37-2.11-21.6a21.58,21.58,0,0,1,.4-6.69c.87-3.43,2.66-5.59,6.41-5.66,2.27,0,3.72-1,4-3.42.18-1.38-.11-2.36-1.56-2.37-3.19,0-3.38-2.36-3.79-4.57-.64-3.35,0-6.73-1.34-10.19-1-2.67,2.26-4.73,4.61-5.32,9.3-2.34,18.59-4.83,28.21-5.63,2.61-.22,4.15.7,4.69,3.11.74,3.29,2.9,4,5.86,3.67,1.74-.21,3.48-.43,5.22-.49a3.85,3.85,0,0,1,4.16,3c1.93,5.64,1,7.17-4.83,7.66-.94.08-2-.24-2.74.75.06,1,.9,1.09,1.55,1.4,1.91.89,3.56,2.11,3.33,4.45s-2.45,2.9-4.29,3.63c-.56.23-1.34.07-1.81.4-1.47,1.05-4.59-.44-4.63,2.6,0,2.71,3.37,5.52,6.11,5.49,1.37,0,2.75-.11,4.12-.14a6.47,6.47,0,0,1,6.16,8.83c-.5,1.39-1.52,1.4-2.66,1.5C373.44,209.45,371.75,209.07,369.89,210.44Z"/><path class="cls-1" d="M378.2,100.92c-1.83-.17-4.21.09-4.88-2-1.22-3.86-2.19-7.63-7.66-7.43a14.47,14.47,0,0,1,3.67-.8,35.07,35.07,0,0,0,3.7-.54c3.5-.84,4.46-2.76,3.12-6.12a5.87,5.87,0,0,0-3.51-3.42,32.41,32.41,0,0,1,3.8,0c4.59.67,5.25.18,5.74-4.42s-.21-5.55-4.7-6.2a27.54,27.54,0,0,0-3-.5c-2.92-.1-4.62-1.3-4.86-4.43-.16-2.1-1.48-3.72-3.69-3.39-4.75.71-4.86-1.86-4.18-5.29a9.66,9.66,0,0,0,.18-3c-.4-3.35,1.3-4.85,4.37-5.26,1.23-.16,2.47-.37,3.71-.46,8.37-.57,9.27-2.19,5-9.32a8.87,8.87,0,0,1,2.85.26c2.89,1.23,3.81.06,4.53-2.71,1.61-6.13,1.47-6.66-4.59-8.44a15.34,15.34,0,0,0-2.18-.52c-2.83-.37-4.51-1.8-4.6-4.79-.07-2.51-1.46-3.3-3.87-3.41-9.54-.47-18.64,1.44-27.5,4.72-4.24,1.57-5,3.63-3.23,7.81.47,1.1.26,2.22.53,3.27.7,2.73.24,6,2.61,8,1.14,1,3.08.79,2.55,3.25-.58,2.64-2.36,2.72-4.43,3-4.83.61-6.27,1.88-7,6.77-1.23,8.77-2.27,17.57-3.2,26.38a18.36,18.36,0,0,0,.52,8.16c1.21,3.43,2.24,3.65,5,1.43a11.44,11.44,0,0,0,3.33-4.67,61.18,61.18,0,0,1,.15,8.21c-.21,3,.71,4.64,4,3.88,2.26-.52,2.27.61,1.8,2.24a16.6,16.6,0,0,0-.65,2.92c-.36,3.3-1.47,6.93,3.35,8.15,1.25.31,1.08,1.48,1.18,2.47.76,7.41,2.15,8.58,9.77,8.43,5.62-.11,11.13-1.55,16.79-1.36,3.09.1,6.83-.29,7.62-3.43.93-3.67-2.38-5.54-5.69-6.69a44,44,0,0,1,6.31.17c1.43.17,2.36,0,2.91-1.54C385.78,105.33,383.35,101.39,378.2,100.92ZM374.66,38.3c-1,0-2.06.35-3-.49C372.9,36.93,373.71,38,374.66,38.3Z"/><path class="cls-1" d="M210.84,244a25.71,25.71,0,0,1,.59,9.63c-.16,1-.43,2.17-1.34,2.57-1.14.49-1.75-.73-2.31-1.46-1.45-1.87-3.21-3.66-4.07-5.8-2.18-5.38-6.51-6.74-11.6-7-5.73-.25-11.52,0-17.07-1.83-1.23-.41-2.15.11-2.29,1.2-.53,4.4-4.25,5.1-7.35,6.38-2.24.93-5,.18-6.71,3-.89,1.44-2.91.6-3.75-1.3a23.46,23.46,0,0,1-1.75-14.26c1.73-9,6.08-16.82,10.85-24.44,2.44-3.9,5.28-7.55,8-11.26,2.07-2.8,3.9-3.72,7.18-2.4,3.49,1.41,4.54.35,3.93-3.35a58.22,58.22,0,0,1-.73-6.32c-.16-3.24,1-6.18,3.94-7.51,2.49-1.13,3.15-2.46,2.6-4.89a15.07,15.07,0,0,1-.2-2.61c-.41-7.22,1.27-9,8.54-9.15.73,0,1.41.21,2.13-.3,4-2.81,5.09-2.29,7.11,2.27a137,137,0,0,1,7.12,21.52c2.92,11.33,7,22.36,9.37,33.83a10.18,10.18,0,0,0,1.12,3.16c2,3.27,1.94,6.12-1.42,8.39-2.13,1.44-2.14,3.31-1.62,5.56,1.11,4.8,3.64,9,5.51,13.45a6.54,6.54,0,0,1-4.63,9.14c-2.06.52-3.2-.32-4-2.28C216,253.15,213.94,248.33,210.84,244Z"/><path class="cls-1" d="M113.62,248l12.51,1a11.71,11.71,0,0,1,2.23.24c1.18.33,2.84.61,3,1.88.18,1.47-1.64,1.19-2.57,1.6-16.39,7.06-32.28,5.7-47-4.1-7.37-4.9-12.17-12.28-14.62-21-2.86-10.21-3.51-20.33,0-30.51,4.36-12.53,12.92-21,25.07-26a30.43,30.43,0,0,1,10.08-2.56c3.86-.18,7.4.64,9.34,4.16,1.17,2.1,2.54,2.23,4.51,2.23a93.31,93.31,0,0,1,11.22.45c5,.59,7.53,5.26,5.15,9.64-.87,1.61-1.08,2.3.2,3.63,2.2,2.29,1,3.55-1.55,4.47-3.93,1.41-8.08,1.46-12.13,2.1a63.88,63.88,0,0,0-16.61,5.47c-8.45,3.88-10.52,21.14-.19,26.14,2.4,1.16,3.47,2.72,3.52,5.09.06,2.54,1.34,3.23,3.67,3.57,8.4,1.21,16.43-.46,24.28-3.06a6.18,6.18,0,0,1,6.78,1.46c2.91,2.61,2.29,6-1.24,7.61a63,63,0,0,1-21.36,5c-1.47.11-2.93.41-4.39.62Z"/><path class="cls-1" d="M281.19,92.42c4.75,2.4,9.4,2.7,13.85,3.52,4.72.87,8.94,3.09,13.52,4.3a3.28,3.28,0,0,1,2.39,4.13c-.83,3.79,1.55,5.14,4.3,6.27,2.19.9,4.43,1.68,6.68,2.4a3.17,3.17,0,0,1,2.49,3.6c-.13,2.54-.26,5-2.34,6.85-.77.66-1.64.14-2.48-.12a78.58,78.58,0,0,0-9.81-2.45c1.44,1,3,1.87,4.3,3s2.35,3,1.73,4.65-2.68,1.57-4.25,1.53a61.23,61.23,0,0,1-16.53-3c-4.61-1.42-9.33-1.58-14-2.25-7.53-1.07-8.9-2-10.87-9.2-.31-1.1-.75-1.89-1.9-2-3.32-.2-4.09-3-5-5.27-1.44-3.43-1.19-3.53-4.44-2a30.18,30.18,0,0,1-2.94-16.35c1.65-13.52,1.61-27.18,3.5-40.66,1.27-9.07,2.29-9.69,9.66-10.82,2.44-.38,2.24-2.48,2.67-4,1.8-6.28,4.26-7.76,10.71-6,.95.27,1.71.7,2.8.28,4.06-1.57,5.57-.71,6,3.57a74.51,74.51,0,0,1-.26,16.82c-1.67,12.37-3.49,24.71-5,37.09C285.52,89.25,284.62,91.31,281.19,92.42Z"/><path class="cls-1" d="M293.62,182c-2.08-1.7-4.67-2.35-7-3.52s-3.28-2.39-2.67-5c.77-3.26-.78-4.85-3.9-6a110.79,110.79,0,0,0-17.88-5.35c-5.84-1.06-11.75-2.51-17.8-1.73-1.7.22-4.39.58-4.06,2.43.64,3.59-1.07,6.54-1.49,9.8-.39,3.08-.28,5.76,3.57,6.59,1.28.27,2.76,1.36.94,2.48-4.89,3-4.29,7.83-4.22,12.34.18,11.21.62,22.41,1,33.62A46.53,46.53,0,0,0,243,243.45c.4,1,.23,2.84,2.08,2.57a3.41,3.41,0,0,0,3-2.44c.67-2.16,1.44-4.29,2.17-6.44.61,3.73.73,7.35,1,11,.11,1.44,0,3.29,1.65,3.9a8.31,8.31,0,0,0,6.87-.66c2.19-1.14,2.26-3.05,2.16-5.13-.17-3.62-.33-7.23-.39-10.85-.05-2.52.92-4.21,3.72-4.75,2.06-.4,4.43-1.19,4.2-3.94-.29-3.54,1.64-3.91,4.35-3.67a27.07,27.07,0,0,0,3.37,0c2.35-.11,5.18.22,6.33-2.28,1.23-2.68-.8-4.66-2.62-6.45-.13-.13,0-.46-.06-.77a8.82,8.82,0,0,1,4.75.27c.69.16,1.53.9,2,.13a10.82,10.82,0,0,0,1.39-7.56,3.71,3.71,0,0,0-3.42-3.41c-2.22-.33-4.41-.83-6.61-1.31-1.56-.34-1.89-1.51-1.64-2.87s1.44-1.1,2.41-1c.62,0,1.24.25,1.85.23,1.58-.05,3.53.36,4.25-1.52a4.47,4.47,0,0,0-1.33-5.1c-.52-.48-1.35-.7-1.37-1.71a8.6,8.6,0,0,1,5.24,1.52c2.13,1.19,3.86,2,5.46-.85C296,186.5,296,184,293.62,182Zm-16.09,30.73c.2,0,.41.17.61.26l-.68.19-.69-.18A2.77,2.77,0,0,1,277.53,212.71Z"/><path class="cls-1" d="M221.31,96.35a11.56,11.56,0,0,1-4.39,7.11c-1.79,1.39-3.06,1.31-3.93-1a17.48,17.48,0,0,1-.83-7.39c1.16-15.16,2-30.35,4.86-45.32.94-5,3.9-9.51,10.11-8.66,1.75.25,2.35-.89,3.05-2.14,4-7.19,4.87-7.49,12.59-4.32a2.83,2.83,0,0,0,2,.4c4.18-.87,5.36.29,5.08,4.74a124.43,124.43,0,0,1-3,20.32c-2,8.65-2.84,17.48-4.22,26.22-.64,4.08-1.9,6.94-6.52,7.07-2,0-2.76,1.34-3,3.16-.6,4.07-1.29,8.12-1.89,12.19-.28,1.93-1.14,3.26-3.15,3.67-2.37.48-4.75.73-6.88-.66-1.14-.74-.62-2-.53-3.12C220.92,104.55,221.89,100.56,221.31,96.35Z"/><path class="cls-1" d="M375.05,38.34l-.07,0h0l-.29-.08A2.43,2.43,0,0,1,375.05,38.34Z"/><path class="cls-2" d="M87.94,336.38c0-3.24-.06-6.49,0-9.73,0-1.24-.65-3.11,1.33-3.37,1.73-.23,4.15-1.14,5.12.78s1.59.94,2.41.38c4.21-2.89,8.23-2.44,12,.8,1.42,1.24,2.35,1.31,3.71-.08,3-3,6.66-3.45,10.36-1.85a9,9,0,0,1,5.73,8.84c0,4.86-.06,9.73.12,14.59.1,2.58-1.26,2.74-3.24,2.77-2.15,0-3.62-.26-3.53-3,.13-3.86-.05-7.73,0-11.6,0-3.19-1.58-4.94-4.55-5.39-2.72-.41-5.22,1.78-5.44,5-.27,4-.25,8-.13,12,.09,2.66-1.24,3-3.45,3s-3.46-.61-3.38-3.15c.13-3.73,0-7.48,0-11.22,0-3.23-1.7-5.25-4.84-5.64-2.94-.36-5.15,1.92-5.33,5.46-.19,3.86-.22,7.74-.06,11.6.12,2.79-1.43,2.88-3.52,2.93s-3.52-.36-3.36-3C88.09,343.12,87.94,339.75,87.94,336.38Z"/><path class="cls-2" d="M23.94,326.49c-4.28-4.43-9.35-5.17-14.9-2.11-1.07.59-1.52,1-2.52-.46-1.15-1.65-3.49-1-5.23-.63-1.9.37-1.14,2.25-1.15,3.47C.08,337.49.2,348.22,0,359c0,2.89,1.42,2.82,3.46,2.85s3.59-.18,3.42-2.95c-.21-3.59,0-7.21,0-11.21,9.81,3.9,15.13,2.37,19.48-5.26C29,337.67,28,330.67,23.94,326.49Zm-10.3,16.67c-4.18,0-6.73-2.65-6.69-6.85a6.93,6.93,0,0,1,6.82-7c3.8,0,6.62,3,6.58,7.1C20.3,340.71,17.81,343.2,13.64,343.16Z"/><path class="cls-2" d="M459.23,323.22c-3.85,1.63-7.19.63-10.68-.67a2.25,2.25,0,0,0-.74-.06c-4.42-.13-10.36,3.32-12,6.95-2.58,5.83-1.72,12.56,2.09,16.42a12.94,12.94,0,0,0,14.79,2.75c1.24-.55,2-1,3.5.19,3,2.41,6.25.56,6.3-3.23,0-3.11,0-6.23,0-9.34h0c0-3.24-.11-6.48,0-9.72C462.71,324,461.61,322.21,459.23,323.22Zm-10.65,19.83c-4.46,0-7.16-2.6-7.12-6.81a6.92,6.92,0,0,1,7.21-6.89,7.18,7.18,0,0,1,7,6.8C455.73,340.19,452.77,343.06,448.58,343.05Z"/><path class="cls-2" d="M162.84,327.11c-.08-3.86-1.77-5.63-4.94-3.74s-4.78.16-7.06-.44c-5.33-1.43-11.28,1.09-14.43,6.15s-2.35,11.45,2.17,16.84c3.09,3.69,9.42,4.91,14.42,2.82,1.18-.49,1.93-1.56,3.63.19,2.35,2.4,6.13.25,6.18-3.14.05-3.11,0-6.23,0-9.34h0Zm-14.06,15.94a6.8,6.8,0,0,1-6.95-6.76,7.21,7.21,0,0,1,7-7,6.83,6.83,0,0,1,7.21,7C156,340.56,153.27,343.08,148.78,343.05Z"/><path class="cls-2" d="M333,323.18a13.8,13.8,0,0,0-16.4,6.34,14.46,14.46,0,0,0,3.73,17.83c4.29,3.49,13.47,3.24,17.82-.54,1-.86,2.7-1.79,2-3.19-.47-1-2.17-1.41-3.38-2s-2,.61-3,1.07c-3.6,1.71-8,1.48-10.23-.66-.72-.68-1.59-1.49-1.31-2.54.33-1.22,1.58-1,2.53-1,2.37,0,4.74,0,7.11,0s5,0,7.48,0c1.72,0,2.39-.74,2.5-2.46A13.27,13.27,0,0,0,333,323.18Zm-3.46,10.45a4.19,4.19,0,0,1-1.12,0,22.36,22.36,0,0,1-2.59,0c-1.25-.16-3.15.7-3.53-1-.33-1.41,1.46-2.11,2.48-2.95a5.37,5.37,0,0,1,4.12-1.4c2.6.34,5.58,1.7,5.57,4.06C334.49,334.87,331.3,333.14,329.58,333.63Z"/><path class="cls-2" d="M218.49,323.11a13.9,13.9,0,0,0-16.45,7c-2.74,5.46-.92,13.41,4,17.26,4.29,3.39,13.71,3.19,17.92-.44,1-.87,2.59-1.8,2.17-3.22s-2.44-1.45-3.72-2.12c-1.1-.58-1.74.64-2.6,1.05-3.22,1.52-6.47,1.81-9.67,0a2.75,2.75,0,0,1-1.43-3.19c.35-1.24,1.64-.86,2.58-.89,2.25-.05,4.49,0,6.73,0v0c2.37,0,4.74,0,7.11,0,1.67,0,2.4-.54,2.51-2.36A13.2,13.2,0,0,0,218.49,323.11Zm2,9.67c-.36,1.21-1.65.78-2.58.84-1.11.07-2.23,0-3.35,0s-2,.07-3,0-2.51.53-3-.8.76-2.27,1.7-3.05a6.68,6.68,0,0,1,8.81.54C219.83,331,220.76,331.77,220.46,332.78Z"/><path class="cls-2" d="M42.71,338.55c2.12-.08,4.24,0,6.37,0s4.25-.13,6.36,0c2.6.2,3.51-.75,3.39-3.41A12.85,12.85,0,0,0,46.9,322.51c-5.38-.54-13.17,3.18-14.33,10.89-.85,5.67,1.3,11.92,5.63,14.44,4.91,2.86,13.27,2.54,17-.8,1-.94,2.72-2.15,1.79-3.69a4.42,4.42,0,0,0-3.92-1.78c-.77.05-1.49.79-2.25,1.17a10,10,0,0,1-9,.14,2.88,2.88,0,0,1-1.92-3.28C40.2,338.06,41.69,338.59,42.71,338.55Zm0-9.46c1.25-.5,2.51-1.18,3.93-.73,2.27.72,5.18,1.63,4.78,4.29-.29,2-3.19.61-4.88,1a5.14,5.14,0,0,1-1.11,0,7.54,7.54,0,0,1-1.84,0c-1.31-.3-3.41.89-3.76-1.11C39.57,330.83,41.2,329.72,42.75,329.09Z"/><path class="cls-2" d="M233.39,336.07c0-3.12,0-6.24,0-9.36,0-1.27-.61-3.12,1.29-3.42,1.72-.28,4-1.12,5.16.82,1.24,2.15,2.1.88,3.17.16,5.67-3.77,12.43-1.33,14.16,5.22,1.57,5.89.68,11.92.7,17.89,0,2.44-2,2-3.61,2.08-1.74.06-3.36,0-3.38-2.38,0-3.74,0-7.49-.06-11.23-.09-4-1.83-6.29-4.8-6.4-3.17-.12-5.72,2.61-5.85,6.45q-.15,4.86,0,9.74c.07,2.4-.17,3.9-3.33,3.94-3.42.06-3.56-1.63-3.48-4.15C233.47,342.32,233.39,339.19,233.39,336.07Z"/><path class="cls-2" d="M170.91,336.29c0-3.25,0-6.5,0-9.74,0-1.15-.57-2.87,1.05-3.21s4.11-1.13,5.21.6,1.69,1,2.82.39c7.41-4.24,14.2-.65,14.67,7.89.27,4.86,0,9.74.16,14.61.08,2.27-.95,2.77-2.93,2.66s-3.9.31-3.86-2.64c.07-3.87.08-7.75,0-11.62s-1.91-5.8-4.94-5.76c-3.31,0-5.36,2.11-5.48,5.83s-.16,7.75,0,11.62c.08,2.69-1.58,2.55-3.43,2.58s-3.4-.1-3.28-2.71c.17-3.49,0-7,0-10.5Z"/><path class="cls-2" d="M299.38,339.21c0-1.87,0-3.74,0-5.61,0-2.46.59-5.16-3.44-5.08-1.61,0-1.6-1.61-1.6-2.88s.3-2.53,1.69-2.43c3.41.25,3.3-1.89,3.48-4.27.48-6.39,4.79-10.05,11.23-9.85,1.7.05,3,.38,2.88,2.46-.09,1.77.59,4-2.41,4s-4.21,1.66-4.59,4.37c-.27,2,.19,3.26,2.46,3.1,2.09-.14,2.93.77,2.86,2.85-.05,1.78-.58,2.93-2.57,2.81-2.38-.14-2.93,1.19-2.9,3.27.07,4.74-.08,9.47.06,14.21.08,2.71-1.13,3.37-3.61,3.33s-3.84-.36-3.59-3.22C299.54,344,299.37,341.57,299.38,339.21Z"/><path class="cls-2" d="M356.39,349.76c-3.09,0-6.09-.57-8.16-3-1.11-1.3-3-3.32-1.43-4.87s4-1.22,5.77.35a5.84,5.84,0,0,0,4.71,1.79c1.3-.14,2.59-.44,2.67-2.05a2.57,2.57,0,0,0-2.12-2.71c-1.56-.42-3.17-.68-4.73-1.1-3.35-.92-5.9-2.57-6.22-6.5s1.54-6.37,4.78-8.1c3.92-2.09,10-1.15,12.76,2.16,1.16,1.37,2.86,3.29,1.19,4.88-1.41,1.34-4,1.14-5.57-.17s-2.64-3.17-5-2.05a2.2,2.2,0,0,0-1.5,2.37c.68,2.54,3.27,1.76,5,2.58a1.48,1.48,0,0,0,.36.1c5.73,1.64,8.7,4.93,8.21,9.11C366.51,347.22,362.67,349.81,356.39,349.76Z"/><path class="cls-2" d="M418.28,339.25l5.57-13.47a5.28,5.28,0,0,1,6.74-2.52c1.32.67.82,1.63.45,2.54q-4.34,10.54-8.7,21.05c-1,2.52-3.11,2.74-5.53,2.65s-2.67-1.86-3.32-3.43c-2.56-6.21-5.2-12.39-7.62-18.65-.47-1.22-2.72-2.66-.43-4.1,2-1.22,6.12,0,6.82,1.94a99.62,99.62,0,0,0,4.91,12.47A15,15,0,0,0,418.28,339.25Z"/><path class="cls-2" d="M267.23,339.08c0-2.12,0-4.24,0-6.36s.23-4.1-2.83-4.12c-1.42,0-1.73-1.23-1.72-2.44s-.16-2.78,1.15-2.83c5.26-.2,3.25-4.1,3.28-6.57,0-2.75.76-3.71,3.59-3.67s4.09.71,3.85,3.81-1.17,6.76,4.2,6.54c1.32-.06,1.12,1.69,1.15,2.79,0,1.53-.8,2.47-2.24,2.39-3.2-.18-3.23,1.8-3.2,4.1.07,4.61-.13,9.24.07,13.84.14,3.21-1.86,2.85-3.89,2.93s-3.67-.15-3.45-2.93C267.39,344.08,267.24,341.57,267.23,339.08Z"/><path class="cls-2" d="M375.35,339.26c0-2.12-.06-4.24,0-6.36.07-2.29-.08-4.26-3.15-4.34-1.36,0-1.8-1.16-1.8-2.41s-.16-2.71,1.22-2.76c4.94-.16,3.71-3.75,3.67-6.47,0-2.54.36-3.84,3.41-3.85s3.43,1.39,3.38,3.87c-.06,2.9-1.22,6.63,4.08,6.34,1.71-.09,1.41,1.73,1.46,2.92.06,1.47-.6,2.53-2.14,2.44-3.31-.17-3.52,1.85-3.47,4.36.08,4.48-.07,9,.06,13.45.07,2.59-1.16,3.05-3.44,3.08s-3.46-.68-3.31-3.17S375.35,341.63,375.35,339.26Z"/><path class="cls-2" d="M477.3,329.29c0,5.5-.1,11,0,16.49.06,2.63-.57,3.84-3.53,3.78-2.68-.06-3.79-.72-3.76-3.59q.19-16.68,0-33.35c0-2.89,1.1-3.56,3.76-3.61,2.92-.05,3.61,1.14,3.54,3.8C477.19,318.3,477.3,323.8,477.3,329.29Z"/><path class="cls-2" d="M71.83,327.68c2.73-3.81,5.16-5.77,8.87-5,1.58.31,2.93.82,2.53,2.9-.33,1.71-.43,3.47-2.83,3.72-6.87.72-7.93,1.8-8.45,8.6a72.58,72.58,0,0,0-.16,8.21c.1,2.58-.85,3.47-3.47,3.46s-3.59-.67-3.54-3.35c.14-6.35,0-12.7.06-19.05,0-1.72-.66-4,2.4-4C69.65,323.08,72.32,322.6,71.83,327.68Z"/><path class="cls-2" d="M399.62,336.7c0,3.37-.11,6.74,0,10.11.11,2.57-1.34,2.77-3.31,2.68s-3.78.31-3.74-2.68c.12-7,.1-14,0-21,0-2.55,1.39-2.79,3.36-2.77s3.8-.11,3.7,2.77C399.53,329.46,399.62,333.08,399.62,336.7Z"/><path class="cls-2" d="M396.36,309.17c2.12.26,4.12,1.05,4.23,3.66.11,2.76-1.73,4.14-4.26,4.13-2.36,0-4.47-.88-4.54-3.83S393.85,309.51,396.36,309.17Z"/></g></g></svg>