<svg xmlns="http://www.w3.org/2000/svg" viewBox="0 0 326.38 264.79"><defs><style>.cls-1{fill:#0099ba;}</style></defs><g id="Laag_2" data-name="Laag 2"><g id="Laag_1-2" data-name="Laag 1"><path class="cls-1" d="M53.89,114.87c.07,2.71,1.46,5.06,1,7.74-.34,2.21-1.12,3.38-3.67,2.06a21.32,21.32,0,0,1-7.65-7c-5.77-8.44-12.15-16.39-18.47-24.4-.69-.87-1.17-2.21-2.45-2s-1.29,1.75-1.43,2.8c-.71,5.57-1.47,11.14-1.94,16.73-.28,3.35-2.31,4.87-5.08,5.69-3.38,1-5.84-1.1-5.59-4.59.41-5.57.85-11.14.92-16.8a28.69,28.69,0,0,1-4.7,9.57c-.61.75-1.33,1.73-2.41,1.53s-.86-1.36-1.1-2.17C-.56,97.57-.2,90.88.89,84.4,3.56,68.48,3.42,52.33,5.28,36.35a32.94,32.94,0,0,1,1.23-6.58C7.72,26.14,10,23.35,14.15,23c2.09-.16,3-1,3.62-3a62.43,62.43,0,0,1,3-6.85c1.12-2.48,2.81-3.24,5.44-2.1a15.6,15.6,0,0,1,5,3.19c.63.62,1.08,1.44,2,1.42,4.18-.09,4.5,2.85,4.41,5.82-.16,4.73-.58,9.46-.87,14.19,0,.72-.34,1.67.36,2.09,1.08.65,1.42-.57,2-1.1,3.08-2.7,5.64-5.92,9-8.34,4.22-3,6.44-3.33,10.26.1,1.79,1.61,3.52,2,5.31.74,3.36-2.4,5.62-.62,7.7,1.77,1.93,2.21,3.28,4.85,6.16,6.28,1.77.88,1.18,2.72.28,4.26a35.13,35.13,0,0,1-7.66,9c-7.1,6-13.8,12.65-21.87,17.44-2.46,1.46-1.19,2.56-.25,3.77A234.2,234.2,0,0,1,63.28,94.43c2,3.3,2.81,6.1-.75,8.73-1.6,1.18-1.35,2.61-.36,3.93,1.87,2.49,3.09,5.37,5.22,7.73,2.94,3.23.51,9.31-3.83,10.21-1.53.32-2.27-.61-3.05-1.64C58.33,120.53,56.1,117.71,53.89,114.87Z"/><path class="cls-1" d="M109.79,20.67c-4.07-.55-5-3.27-5.48-6.33-.43-2.77-.52-5.47-2.06-8.14-1.45-2.5.85-4,3.18-4.82A33,33,0,0,1,118,.1a67.92,67.92,0,0,1,27.32,7.06,3.51,3.51,0,0,1,1.89,4.68c-1.1,3.34.62,4.89,3.29,6,1.26.53,2.55,1,3.85,1.42,2.36.78,3.33,2.31,3.15,4.82-.44,6.2-1.65,7.08-7.56,5.15-1.53-.49-3-1.07-5.18-1.85,1.64,2.14,3.68,3.16,4.22,5.53.62,2.75-.39,3.83-2.87,3.94a24,24,0,0,1-8.08-1.39,86.65,86.65,0,0,0-13.41-3.3c-2.27-.31-3.2.38-3.57,2.54A88.56,88.56,0,0,1,119,44.57c-.72,2.41.32,3.1,2.29,3.62,3.25.86,6.44,2,9.7,2.75,2.36.58,3.52,1.9,3.14,4.26-.57,3.44,1.36,4.58,4.24,5.34,4.31,1.15,6.4,6.77,4.14,10.55-.64,1.07-1.37.73-2.23.56-1.43-.27-2.85-.93-4.35-.35,0,.3-.2.63-.11.74,1.64,1.85,4,3.72,2.54,6.4-1.38,2.48-4.36,2.15-6.83,2-5.47-.46-10.92-1.1-16.38-1.68-.87-.09-1.73-.31-2.6-.33a1.74,1.74,0,0,0-1.93,1.83c-.06,1.29,1,1.33,1.84,1.31,3.3-.09,6.37,1.24,9.61,1.47,2.4.17,3.91,1.4,3.78,3.74-.22,3.77,2,4.68,5,5,6.54.71,7,1.8,6.22,9.07-.18,1.78-1.1,2.62-3,2.29-2.69-.44-5.38-1.1-8.32-.36,3.39-.27,5.23,1.53,6.34,4.32.92,2.32.23,3.93-2.21,4.61a11.08,11.08,0,0,1-3.31.54c-6.5-.19-13,.51-19.43.9-3.82.23-7.93.22-9.58-4.59-.53-1.55-1.93-.7-2.94-.68-5.11.07-5.19,0-5.08-5.21.08-3.7,0-7.4,0-11.72-1.25,2.62-2.26,4.79-3.31,6.93a3.2,3.2,0,0,1-3,2c-1.59,0-1.35-1.55-1.65-2.53-2.37-7.82-.77-15.62.17-23.42Q83.68,58.07,87,42.49a33.65,33.65,0,0,1,2.46-7c1.85-4.12,4.78-6,9.18-5.3,2.31.36,2.88-1,3.78-2.64C104,24.58,104.11,19.92,109.79,20.67Z"/><path class="cls-1" d="M311.68,210.44c2.13,1.7,5.65,2.43,4.69,5.72-.8,2.77-3.89,3.38-6.37,4-7.12,1.67-13.61,4.79-20,8.1a18.17,18.17,0,0,1-4.94,1.64c-1.4.26-1.73,1.3-1.67,2.52.06,1.37,1.06,1.49,2.12,1.52,3.37.08,6.75.31,10.12.21,2.8-.09,4.61.79,5,3.74.4,3.11,2.31,4.07,5.21,3.93,2.37-.11,4.75.08,7.12,0,2-.07,3.45.63,4,2.57.71,2.4,1.39,4.87.28,7.31-.51,1.11-1.76.69-2.71.7-2.57,0-5.14,0-8.16,0,1,2.54,2.88,2.06,4,2.9,1.35,1,2.67,2.06,2.48,3.9-.18,1.67-1.81,1.91-3.06,2.32a19.53,19.53,0,0,1-4.71,1.15q-15.68,1.15-31.38,2.12a22.39,22.39,0,0,1-4.48-.19c-5.15-.74-6.76-2.22-7.39-7.32-.25-2-.85-3.34-2.92-3.68-6-1-6-5.42-4.73-10.05.33-1.18,1-2.19.42-3.56-1.5-3.59-.8-5.41,2.79-5.56,4.1-.17,4.39-2.06,4.33-5.47-.11-7.28-1.72-14.37-2.11-21.6a21.58,21.58,0,0,1,.4-6.69c.87-3.43,2.66-5.59,6.41-5.66,2.27,0,3.72-1,4.05-3.42.18-1.38-.11-2.36-1.56-2.37-3.19,0-3.38-2.36-3.79-4.57-.64-3.35,0-6.73-1.34-10.19-1-2.67,2.26-4.73,4.61-5.32,9.3-2.34,18.59-4.83,28.21-5.63,2.61-.22,4.15.7,4.69,3.11.74,3.29,2.9,4,5.86,3.67,1.74-.21,3.48-.43,5.22-.49a3.85,3.85,0,0,1,4.16,3c1.93,5.64,1,7.17-4.83,7.66-.94.08-2-.24-2.74.75.06,1,.9,1.09,1.55,1.4,1.91.89,3.56,2.11,3.33,4.45s-2.45,2.9-4.28,3.63c-.57.23-1.35.07-1.82.4-1.47,1.05-4.59-.44-4.63,2.6,0,2.71,3.37,5.52,6.11,5.49,1.37,0,2.75-.11,4.12-.14a6.47,6.47,0,0,1,6.16,8.83c-.5,1.39-1.52,1.4-2.66,1.5C315.23,209.45,313.54,209.07,311.68,210.44Z"/><path class="cls-1" d="M320,100.92c-1.83-.17-4.21.09-4.88-2-1.22-3.86-2.19-7.63-7.66-7.43a14.47,14.47,0,0,1,3.67-.8,35.07,35.07,0,0,0,3.7-.54c3.5-.84,4.46-2.76,3.12-6.12a5.87,5.87,0,0,0-3.51-3.42,32.41,32.41,0,0,1,3.8,0c4.59.67,5.25.18,5.74-4.42s-.21-5.55-4.7-6.2a27.54,27.54,0,0,0-2.95-.5c-2.92-.1-4.62-1.3-4.86-4.43-.16-2.1-1.48-3.72-3.69-3.39-4.75.71-4.86-1.86-4.18-5.29a9.66,9.66,0,0,0,.18-3c-.4-3.35,1.3-4.85,4.37-5.26,1.23-.16,2.47-.37,3.71-.46,8.37-.57,9.27-2.19,5-9.32a8.87,8.87,0,0,1,2.85.26c2.89,1.23,3.81.06,4.53-2.71,1.61-6.13,1.47-6.66-4.59-8.44a15.34,15.34,0,0,0-2.18-.52c-2.83-.37-4.51-1.8-4.6-4.79-.07-2.51-1.46-3.3-3.87-3.41-9.54-.47-18.64,1.44-27.5,4.72-4.24,1.57-5,3.63-3.23,7.81.47,1.1.26,2.22.53,3.27.7,2.73.24,6,2.61,8,1.14,1,3.08.79,2.55,3.25-.58,2.64-2.36,2.72-4.43,3-4.83.61-6.27,1.88-7,6.77-1.23,8.77-2.27,17.57-3.2,26.38a18.36,18.36,0,0,0,.52,8.16c1.21,3.43,2.24,3.65,5,1.43a11.44,11.44,0,0,0,3.33-4.67,61.18,61.18,0,0,1,.15,8.21c-.21,3,.71,4.64,4,3.88,2.26-.52,2.27.61,1.8,2.24a16.6,16.6,0,0,0-.65,2.92c-.36,3.3-1.47,6.93,3.35,8.15,1.25.31,1.08,1.48,1.18,2.47.76,7.41,2.15,8.58,9.77,8.43,5.62-.11,11.13-1.55,16.79-1.36,3.09.1,6.83-.29,7.62-3.43.93-3.67-2.38-5.54-5.69-6.69a44,44,0,0,1,6.31.17c1.43.17,2.36,0,2.91-1.54C327.57,105.33,325.14,101.39,320,100.92ZM316.45,38.3c-1,0-2.06.35-3-.49C314.69,36.93,315.5,38,316.45,38.3Z"/><path class="cls-1" d="M152.63,244a25.71,25.71,0,0,1,.59,9.63c-.16,1-.43,2.17-1.34,2.57-1.14.49-1.75-.73-2.31-1.46-1.45-1.87-3.21-3.66-4.07-5.8-2.17-5.38-6.51-6.74-11.6-7-5.73-.25-11.52,0-17.07-1.83-1.23-.41-2.15.11-2.29,1.2-.53,4.4-4.25,5.1-7.35,6.38-2.24.93-5,.18-6.71,3-.89,1.44-2.91.6-3.75-1.3A23.53,23.53,0,0,1,95,235.15c1.73-9,6.09-16.82,10.85-24.44,2.44-3.9,5.28-7.55,8-11.26,2.07-2.8,3.9-3.72,7.18-2.4,3.49,1.41,4.54.35,3.93-3.35a58.22,58.22,0,0,1-.73-6.32c-.16-3.24,1-6.18,3.94-7.51,2.49-1.13,3.15-2.46,2.6-4.89a15.07,15.07,0,0,1-.19-2.61c-.42-7.22,1.27-9,8.53-9.15.73,0,1.41.21,2.13-.3,4-2.81,5.09-2.29,7.11,2.27a137,137,0,0,1,7.12,21.52c2.92,11.33,6.95,22.36,9.37,33.83A10.18,10.18,0,0,0,166,223.7c2,3.27,1.94,6.12-1.42,8.39-2.13,1.44-2.14,3.31-1.62,5.56,1.11,4.8,3.64,9,5.51,13.45a6.54,6.54,0,0,1-4.63,9.14c-2.06.52-3.2-.32-4-2.28C157.76,253.15,155.73,248.33,152.63,244Z"/><path class="cls-1" d="M55.41,248l12.51,1a11.71,11.71,0,0,1,2.23.24c1.18.33,2.84.61,3,1.88.18,1.47-1.64,1.19-2.57,1.6-16.39,7.06-32.28,5.7-47-4.1-7.37-4.9-12.17-12.28-14.62-21C6.09,217.34,5.44,207.22,9,197c4.36-12.53,12.92-21,25.07-26a30.43,30.43,0,0,1,10.08-2.56c3.87-.18,7.4.64,9.35,4.16,1.16,2.1,2.53,2.23,4.5,2.23a93.31,93.31,0,0,1,11.22.45c5,.59,7.53,5.26,5.15,9.64-.87,1.61-1.08,2.3.2,3.63,2.2,2.29,1,3.55-1.55,4.47-3.93,1.41-8.08,1.46-12.13,2.1a63.88,63.88,0,0,0-16.61,5.47c-8.45,3.88-10.52,21.14-.19,26.14,2.4,1.16,3.47,2.72,3.52,5.09.06,2.54,1.34,3.23,3.67,3.57,8.4,1.21,16.43-.46,24.28-3.06a6.18,6.18,0,0,1,6.78,1.46c2.91,2.61,2.29,6-1.24,7.61a63,63,0,0,1-21.36,5c-1.47.11-2.93.41-4.39.62Z"/><path class="cls-1" d="M223,92.42c4.75,2.4,9.4,2.7,13.85,3.52,4.72.87,8.94,3.09,13.52,4.3a3.28,3.28,0,0,1,2.39,4.13c-.83,3.79,1.55,5.14,4.3,6.27,2.19.9,4.43,1.68,6.68,2.4a3.17,3.17,0,0,1,2.49,3.6c-.13,2.54-.26,5-2.34,6.85-.77.66-1.64.14-2.48-.12a78.87,78.87,0,0,0-9.8-2.45c1.43,1,3,1.87,4.29,3s2.35,3,1.73,4.65-2.68,1.57-4.25,1.53a61.23,61.23,0,0,1-16.53-3c-4.61-1.42-9.33-1.58-14-2.25-7.53-1.07-8.9-2-10.87-9.2-.31-1.1-.75-1.89-1.9-2-3.32-.2-4.09-3-5-5.27-1.44-3.43-1.19-3.53-4.44-2a30.18,30.18,0,0,1-2.94-16.35c1.65-13.52,1.61-27.18,3.5-40.66,1.27-9.07,2.29-9.69,9.66-10.82,2.44-.38,2.24-2.48,2.67-4,1.8-6.28,4.26-7.76,10.71-6,1,.27,1.71.7,2.8.28,4.06-1.57,5.57-.71,6,3.57a74.51,74.51,0,0,1-.26,16.82c-1.67,12.37-3.49,24.71-5,37.09C227.31,89.25,226.41,91.31,223,92.42Z"/><path class="cls-1" d="M235.41,182c-2.08-1.7-4.67-2.35-7-3.52s-3.28-2.39-2.67-5c.77-3.26-.78-4.85-3.9-6A110.79,110.79,0,0,0,204,162.17c-5.84-1.06-11.75-2.51-17.8-1.73-1.7.22-4.39.58-4.06,2.43.64,3.59-1.07,6.54-1.49,9.8-.39,3.08-.28,5.76,3.57,6.59,1.28.27,2.76,1.36.94,2.48-4.89,3-4.29,7.83-4.22,12.34.18,11.21.62,22.41,1,33.62a46.53,46.53,0,0,0,3,15.75c.4,1,.23,2.84,2.08,2.57a3.41,3.41,0,0,0,3-2.44c.67-2.16,1.44-4.29,2.17-6.44.61,3.73.73,7.35,1,11,.11,1.44,0,3.29,1.65,3.9a8.31,8.31,0,0,0,6.87-.66c2.19-1.14,2.26-3.05,2.16-5.13-.17-3.62-.33-7.23-.39-10.85,0-2.52.92-4.21,3.72-4.75,2.06-.4,4.43-1.19,4.2-3.94-.29-3.54,1.64-3.91,4.35-3.67a27.07,27.07,0,0,0,3.37,0c2.35-.11,5.18.22,6.33-2.28,1.23-2.68-.8-4.66-2.62-6.45-.13-.13,0-.46-.06-.77a8.82,8.82,0,0,1,4.75.27c.69.16,1.53.9,2,.13a10.82,10.82,0,0,0,1.39-7.56,3.71,3.71,0,0,0-3.42-3.41c-2.22-.33-4.41-.83-6.61-1.31-1.56-.34-1.89-1.51-1.64-2.87s1.44-1.1,2.41-1c.62,0,1.24.25,1.85.23,1.58-.05,3.53.36,4.25-1.52a4.47,4.47,0,0,0-1.33-5.1c-.52-.48-1.35-.7-1.37-1.71a8.6,8.6,0,0,1,5.24,1.52c2.13,1.19,3.86,2,5.46-.85C237.82,186.5,237.83,184,235.41,182Zm-16.09,30.73c.2,0,.41.17.61.26l-.68.19-.69-.18A2.77,2.77,0,0,1,219.32,212.71Z"/><path class="cls-1" d="M163.1,96.35a11.56,11.56,0,0,1-4.39,7.11c-1.79,1.39-3.06,1.31-3.93-1A17.48,17.48,0,0,1,154,95c1.16-15.16,2-30.35,4.86-45.32.94-5,3.9-9.51,10.11-8.66,1.75.25,2.36-.89,3.05-2.14,4-7.19,4.87-7.49,12.59-4.32a2.83,2.83,0,0,0,2,.4c4.18-.87,5.36.29,5.08,4.74a124.43,124.43,0,0,1-3,20.32c-2,8.65-2.84,17.48-4.22,26.22-.64,4.08-1.9,6.94-6.52,7.07-2,0-2.76,1.34-3,3.16-.6,4.07-1.29,8.12-1.89,12.19-.28,1.93-1.14,3.26-3.15,3.67-2.37.48-4.75.73-6.88-.66-1.14-.74-.62-2-.53-3.12C162.71,104.55,163.68,100.56,163.1,96.35Z"/><path class="cls-1" d="M316.84,38.34l-.07,0h0l-.29-.08A2.43,2.43,0,0,1,316.84,38.34Z"/></g></g></svg>