<svg xmlns="http://www.w3.org/2000/svg" viewBox="0 0 501.94 537.03" fill="#0588a7d1">
    <g id="Laag_2" data-name="Laag 2">
        <g id="Laag_1-2" data-name="Laag 1">
            <path d="M469.32,204.79c16,26.05-32.82,51.26-26.43,54.27,7.27,3.42,16.18,4,24.46,4.48,18.09,1.1,24.29,10.18,22.74,27.87-2.37,27.16-5.63,30.5-31.43,26.7-3.75-.55-7.64-.07-11.8-.07,3.92,5.81,8.68,11.06,11.37,17.2,7.88,17.95,2.55,28.28-16.8,32.32C429.87,370,418,370.84,405,374.37c25.73-.91,32,16,38.95,35.05,2.36,6.44,15.71,11.26,24.63,12.45,27.27,3.64,39.64,21.28,30.17,47.79-1.49,4.17-8.71,8.49-13.55,8.83-10.77.75-21.72-1-32.59-1.69,17.24,6.64,32.86,17.71,28,34.62-2.56,8.9-23.06,15.83-36.33,17.81-30.38,4.54-278.29,6.43-309,7.64-36.32,1.44-44.33-6.64-47.89-42-.49-4.95-3.19-13-6.41-13.83-21.17-5.69-19.3-21.22-17.21-36.9,1.34-10.05,3.68-20,5.51-29.67-1.7-1.17-2.74-2.51-3.68-2.45-28.1,1.72-28,1.74-27.53-25.67.2-10.84,0-21.68,0-32.91,3.2-26.46-2.93-50.73-9.9-44.49C15.27,320.54,8.52,319.22,4,302.19A121,121,0,0,1,.51,260.43c4.35-45.3.56-24.72,7-69.77,3.94-27.64,11.1-34.45,38.39-36.48,17.66-1.32,21.15-10.45,21-26-19.09-2.08-21.32-16.85-24.24-31.64C40,82.87,36.28,69.43,32.81,56,28.43,38.92,38.9,30,52,25,99.19,7,365.05-3.5,415.9,1.07c5.78.52,14.85,8.68,15.48,14.11,2.08,17.83,11,26.1,28,27.6a39.59,39.59,0,0,1,7.5,1.75c29.87,8.68,37.47,28.93,20.19,55.64-1.84,2.85-8.22,3.87-12.46,3.79-6.14-.13-12.25-2-22.05-3.85,4,6,6,8.76,7.74,11.61,12.42,20.45,5,34.36-19.39,36.51-2.56.23-5.13.21-7.7.36"/>
        </g>
    </g>
</svg>